<mxfile host="Electron" agent="Mozilla/5.0 (Windows NT 10.0; Win64; x64) AppleWebKit/537.36 (KHTML, like Gecko) draw.io/26.0.4 Chrome/128.0.6613.186 Electron/32.2.5 Safari/537.36" version="26.0.4">
  <diagram name="Page-1" id="ErCnhIx6DcZLbncz3Et1">
    <mxGraphModel dx="1434" dy="1936" grid="1" gridSize="10" guides="1" tooltips="1" connect="1" arrows="1" fold="1" page="1" pageScale="1" pageWidth="850" pageHeight="1100" math="0" shadow="0">
      <root>
        <mxCell id="0" />
        <mxCell id="1" parent="0" />
        <mxCell id="MSOV6ydqfFEpPRnxWeuy-1" value="" style="rounded=1;whiteSpace=wrap;html=1;strokeColor=#0066CC;" vertex="1" parent="1">
          <mxGeometry x="40" y="-780" width="180" height="760" as="geometry" />
        </mxCell>
        <mxCell id="MSOV6ydqfFEpPRnxWeuy-2" value="&lt;b&gt;&lt;font style=&quot;font-size: 14px;&quot;&gt;Infrastructure&lt;/font&gt;&lt;/b&gt;" style="shape=mxgraph.ibm.box;prType=classic;fontStyle=0;verticalAlign=top;align=left;spacingLeft=32;spacingTop=4;fillColor=none;rounded=0;whiteSpace=wrap;html=1;strokeColor=#4376BB;strokeWidth=2;dashed=0;container=1;spacing=-4;collapsible=0;expand=0;recursiveResize=0;" vertex="1" parent="1">
          <mxGeometry x="280" y="-1050" width="1090" height="1030" as="geometry" />
        </mxCell>
        <mxCell id="MSOV6ydqfFEpPRnxWeuy-3" style="edgeStyle=orthogonalEdgeStyle;rounded=0;orthogonalLoop=1;jettySize=auto;html=1;exitX=1;exitY=0.5;exitDx=0;exitDy=0;exitPerimeter=0;entryX=0;entryY=0.5;entryDx=0;entryDy=0;" edge="1" parent="MSOV6ydqfFEpPRnxWeuy-2" source="MSOV6ydqfFEpPRnxWeuy-4" target="MSOV6ydqfFEpPRnxWeuy-7">
          <mxGeometry relative="1" as="geometry" />
        </mxCell>
        <mxCell id="MSOV6ydqfFEpPRnxWeuy-4" value="&lt;font style=&quot;font-size: 14px;&quot;&gt;&lt;b style=&quot;&quot;&gt;System Input&lt;/b&gt;&lt;/font&gt;" style="html=1;strokeWidth=2;outlineConnect=0;dashed=0;align=center;fontSize=8;verticalLabelPosition=bottom;verticalAlign=top;shape=mxgraph.eip.test_message;fillColor=#dae8fc;strokeColor=#6c8ebf;" vertex="1" parent="MSOV6ydqfFEpPRnxWeuy-2">
          <mxGeometry x="-230" y="360" width="150" height="90" as="geometry" />
        </mxCell>
        <mxCell id="MSOV6ydqfFEpPRnxWeuy-5" value="&lt;font style=&quot;font-size: 14px;&quot;&gt;&lt;b style=&quot;&quot;&gt;User Input&lt;/b&gt;&lt;/font&gt;" style="html=1;strokeWidth=2;outlineConnect=0;dashed=0;align=center;fontSize=8;verticalLabelPosition=bottom;verticalAlign=top;shape=mxgraph.eip.test_message;fillColor=#ffe6cc;strokeColor=#d79b00;" vertex="1" parent="MSOV6ydqfFEpPRnxWeuy-2">
          <mxGeometry x="-230" y="520" width="150" height="90" as="geometry" />
        </mxCell>
        <mxCell id="MSOV6ydqfFEpPRnxWeuy-6" style="edgeStyle=orthogonalEdgeStyle;rounded=0;orthogonalLoop=1;jettySize=auto;html=1;exitX=1;exitY=0.5;exitDx=0;exitDy=0;" edge="1" parent="MSOV6ydqfFEpPRnxWeuy-2" source="MSOV6ydqfFEpPRnxWeuy-7" target="MSOV6ydqfFEpPRnxWeuy-10">
          <mxGeometry relative="1" as="geometry" />
        </mxCell>
        <mxCell id="MSOV6ydqfFEpPRnxWeuy-50" style="edgeStyle=orthogonalEdgeStyle;rounded=0;orthogonalLoop=1;jettySize=auto;html=1;exitX=0.25;exitY=0;exitDx=0;exitDy=0;entryX=0.25;entryY=1;entryDx=0;entryDy=0;entryPerimeter=0;" edge="1" parent="MSOV6ydqfFEpPRnxWeuy-2" source="MSOV6ydqfFEpPRnxWeuy-7" target="MSOV6ydqfFEpPRnxWeuy-48">
          <mxGeometry relative="1" as="geometry" />
        </mxCell>
        <mxCell id="MSOV6ydqfFEpPRnxWeuy-7" value="&lt;font style=&quot;font-size: 14px;&quot;&gt;&lt;b style=&quot;&quot;&gt;Prompt Interface&lt;/b&gt;&lt;/font&gt;" style="strokeWidth=2;dashed=0;align=center;fontSize=8;shape=rect;verticalLabelPosition=bottom;verticalAlign=top;fillColor=#c0f5a9;html=1;" vertex="1" parent="MSOV6ydqfFEpPRnxWeuy-2">
          <mxGeometry x="20" y="520" width="150" height="90" as="geometry" />
        </mxCell>
        <mxCell id="MSOV6ydqfFEpPRnxWeuy-8" value="" style="html=1;strokeWidth=1;dashed=0;align=center;fontSize=8;shape=rect" vertex="1" parent="MSOV6ydqfFEpPRnxWeuy-7">
          <mxGeometry x="25" y="25" width="40" height="40" as="geometry" />
        </mxCell>
        <mxCell id="MSOV6ydqfFEpPRnxWeuy-9" style="edgeStyle=orthogonalEdgeStyle;rounded=0;orthogonalLoop=1;jettySize=auto;html=1;exitX=1;exitY=0.5;exitDx=0;exitDy=0;exitPerimeter=0;entryX=0;entryY=0.5;entryDx=0;entryDy=0;" edge="1" parent="MSOV6ydqfFEpPRnxWeuy-2" source="MSOV6ydqfFEpPRnxWeuy-5" target="MSOV6ydqfFEpPRnxWeuy-7">
          <mxGeometry relative="1" as="geometry" />
        </mxCell>
        <mxCell id="MSOV6ydqfFEpPRnxWeuy-10" value="&lt;b&gt;&lt;font style=&quot;font-size: 14px;&quot;&gt;LLM Model&lt;/font&gt;&lt;/b&gt;" style="html=1;strokeWidth=2;outlineConnect=0;dashed=0;align=center;fontSize=8;verticalLabelPosition=bottom;verticalAlign=top;shape=mxgraph.eip.message_store;fillColor=#c0f5a9" vertex="1" parent="MSOV6ydqfFEpPRnxWeuy-2">
          <mxGeometry x="240" y="520" width="150" height="90" as="geometry" />
        </mxCell>
        <mxCell id="MSOV6ydqfFEpPRnxWeuy-11" style="edgeStyle=orthogonalEdgeStyle;rounded=0;orthogonalLoop=1;jettySize=auto;html=1;exitX=1;exitY=0.5;exitDx=0;exitDy=0;exitPerimeter=0;entryX=0;entryY=0.5;entryDx=0;entryDy=0;" edge="1" parent="MSOV6ydqfFEpPRnxWeuy-2" source="MSOV6ydqfFEpPRnxWeuy-12" target="MSOV6ydqfFEpPRnxWeuy-14">
          <mxGeometry relative="1" as="geometry" />
        </mxCell>
        <mxCell id="MSOV6ydqfFEpPRnxWeuy-12" value="&lt;font style=&quot;font-size: 14px;&quot;&gt;&lt;b&gt;Output Parser&lt;/b&gt;&lt;/font&gt;" style="html=1;strokeWidth=2;outlineConnect=0;dashed=0;align=center;fontSize=8;shape=mxgraph.eip.message_translator;fillColor=#c0f5a9;verticalLabelPosition=bottom;verticalAlign=top;" vertex="1" parent="MSOV6ydqfFEpPRnxWeuy-2">
          <mxGeometry x="460" y="520" width="150" height="90" as="geometry" />
        </mxCell>
        <mxCell id="MSOV6ydqfFEpPRnxWeuy-13" style="edgeStyle=orthogonalEdgeStyle;rounded=0;orthogonalLoop=1;jettySize=auto;html=1;exitX=1;exitY=0.5;exitDx=0;exitDy=0;exitPerimeter=0;entryX=0;entryY=0.5;entryDx=0;entryDy=0;entryPerimeter=0;" edge="1" parent="MSOV6ydqfFEpPRnxWeuy-2" source="MSOV6ydqfFEpPRnxWeuy-10" target="MSOV6ydqfFEpPRnxWeuy-12">
          <mxGeometry relative="1" as="geometry" />
        </mxCell>
        <mxCell id="MSOV6ydqfFEpPRnxWeuy-14" value="&lt;b&gt;&lt;font style=&quot;font-size: 14px;&quot;&gt;Response Interface&lt;/font&gt;&lt;/b&gt;" style="strokeWidth=2;dashed=0;align=center;fontSize=8;shape=rect;verticalLabelPosition=bottom;verticalAlign=top;fillColor=#c0f5a9;html=1;" vertex="1" parent="MSOV6ydqfFEpPRnxWeuy-2">
          <mxGeometry x="680" y="520" width="150" height="90" as="geometry" />
        </mxCell>
        <mxCell id="MSOV6ydqfFEpPRnxWeuy-15" value="" style="html=1;strokeWidth=1;dashed=0;align=center;fontSize=8;shape=rect;" vertex="1" parent="MSOV6ydqfFEpPRnxWeuy-14">
          <mxGeometry x="85" y="25" width="40" height="40" as="geometry" />
        </mxCell>
        <mxCell id="MSOV6ydqfFEpPRnxWeuy-16" value="&lt;font style=&quot;font-size: 14px;&quot;&gt;&lt;b&gt;Generated Output&amp;nbsp;&lt;/b&gt;&lt;/font&gt;&lt;div&gt;&lt;font style=&quot;font-size: 14px;&quot;&gt;&lt;b&gt;&amp;amp; Feedback&lt;/b&gt;&lt;/font&gt;&lt;/div&gt;" style="html=1;strokeWidth=2;outlineConnect=0;dashed=0;align=center;fontSize=8;verticalLabelPosition=bottom;verticalAlign=top;shape=mxgraph.eip.test_message;fillColor=#e1d5e7;strokeColor=#9673a6;" vertex="1" parent="MSOV6ydqfFEpPRnxWeuy-2">
          <mxGeometry x="900" y="520" width="150" height="90" as="geometry" />
        </mxCell>
        <mxCell id="MSOV6ydqfFEpPRnxWeuy-17" style="edgeStyle=orthogonalEdgeStyle;rounded=0;orthogonalLoop=1;jettySize=auto;html=1;exitX=1;exitY=0.5;exitDx=0;exitDy=0;entryX=0;entryY=0.5;entryDx=0;entryDy=0;entryPerimeter=0;" edge="1" parent="MSOV6ydqfFEpPRnxWeuy-2" source="MSOV6ydqfFEpPRnxWeuy-14" target="MSOV6ydqfFEpPRnxWeuy-16">
          <mxGeometry relative="1" as="geometry" />
        </mxCell>
        <mxCell id="MSOV6ydqfFEpPRnxWeuy-18" style="edgeStyle=orthogonalEdgeStyle;rounded=0;orthogonalLoop=1;jettySize=auto;html=1;exitX=1;exitY=0.5;exitDx=0;exitDy=0;exitPerimeter=0;entryX=0;entryY=0.5;entryDx=0;entryDy=0;" edge="1" parent="MSOV6ydqfFEpPRnxWeuy-2" source="MSOV6ydqfFEpPRnxWeuy-19" target="MSOV6ydqfFEpPRnxWeuy-7">
          <mxGeometry relative="1" as="geometry" />
        </mxCell>
        <mxCell id="MSOV6ydqfFEpPRnxWeuy-19" value="&lt;font style=&quot;font-size: 14px;&quot;&gt;&lt;b style=&quot;&quot;&gt;AI (Assistant) Input&lt;/b&gt;&lt;/font&gt;" style="html=1;strokeWidth=2;outlineConnect=0;dashed=0;align=center;fontSize=8;verticalLabelPosition=bottom;verticalAlign=top;shape=mxgraph.eip.test_message;fillColor=#f8cecc;strokeColor=#b85450;" vertex="1" parent="MSOV6ydqfFEpPRnxWeuy-2">
          <mxGeometry x="-230" y="680" width="150" height="90" as="geometry" />
        </mxCell>
        <mxCell id="MSOV6ydqfFEpPRnxWeuy-20" style="edgeStyle=orthogonalEdgeStyle;rounded=0;orthogonalLoop=1;jettySize=auto;html=1;entryX=0.75;entryY=0;entryDx=0;entryDy=0;" edge="1" parent="MSOV6ydqfFEpPRnxWeuy-2" source="MSOV6ydqfFEpPRnxWeuy-22" target="MSOV6ydqfFEpPRnxWeuy-7">
          <mxGeometry relative="1" as="geometry" />
        </mxCell>
        <mxCell id="MSOV6ydqfFEpPRnxWeuy-21" style="edgeStyle=orthogonalEdgeStyle;rounded=0;orthogonalLoop=1;jettySize=auto;html=1;exitX=1;exitY=0.5;exitDx=0;exitDy=0;exitPerimeter=0;" edge="1" parent="MSOV6ydqfFEpPRnxWeuy-2" source="MSOV6ydqfFEpPRnxWeuy-22" target="MSOV6ydqfFEpPRnxWeuy-14">
          <mxGeometry relative="1" as="geometry" />
        </mxCell>
        <mxCell id="MSOV6ydqfFEpPRnxWeuy-22" value="&lt;b&gt;Application Interfaces&lt;/b&gt;" style="html=1;outlineConnect=0;whiteSpace=wrap;fillColor=#99ffff;shape=mxgraph.archimate3.application;appType=interface;archiType=square;" vertex="1" parent="MSOV6ydqfFEpPRnxWeuy-2">
          <mxGeometry x="365" y="360" width="370" height="55" as="geometry" />
        </mxCell>
        <mxCell id="MSOV6ydqfFEpPRnxWeuy-26" value="&lt;b&gt;&lt;font style=&quot;font-size: 14px;&quot;&gt;Memory&lt;/font&gt;&lt;/b&gt;" style="html=1;strokeWidth=2;outlineConnect=0;dashed=0;align=center;fontSize=8;verticalLabelPosition=bottom;verticalAlign=top;shape=mxgraph.eip.message_store;fillColor=#bac8d3;strokeColor=#23445d;" vertex="1" parent="MSOV6ydqfFEpPRnxWeuy-2">
          <mxGeometry x="20" y="880" width="150" height="90" as="geometry" />
        </mxCell>
        <mxCell id="MSOV6ydqfFEpPRnxWeuy-27" style="edgeStyle=orthogonalEdgeStyle;rounded=0;orthogonalLoop=1;jettySize=auto;html=1;entryX=1;entryY=0.5;entryDx=0;entryDy=0;entryPerimeter=0;exitX=0.5;exitY=1;exitDx=0;exitDy=0;exitPerimeter=0;" edge="1" parent="MSOV6ydqfFEpPRnxWeuy-2" source="MSOV6ydqfFEpPRnxWeuy-10" target="MSOV6ydqfFEpPRnxWeuy-26">
          <mxGeometry relative="1" as="geometry" />
        </mxCell>
        <mxCell id="MSOV6ydqfFEpPRnxWeuy-28" value="1" style="ellipse;whiteSpace=wrap;html=1;aspect=fixed;rotation=0;gradientColor=#223548;strokeColor=none;gradientDirection=east;fillColor=#5b738b;rounded=0;pointerEvents=0;fontFamily=Helvetica;fontSize=16;fontColor=#FFFFFF;spacingTop=4;spacingBottom=4;spacingLeft=4;spacingRight=4;points=[];fontStyle=1" vertex="1" parent="MSOV6ydqfFEpPRnxWeuy-2">
          <mxGeometry x="125" y="10" width="30" height="30" as="geometry" />
        </mxCell>
        <mxCell id="MSOV6ydqfFEpPRnxWeuy-29" value="2" style="ellipse;whiteSpace=wrap;html=1;aspect=fixed;rotation=0;gradientColor=#223548;strokeColor=none;gradientDirection=east;fillColor=#5b738b;rounded=0;pointerEvents=0;fontFamily=Helvetica;fontSize=16;fontColor=#FFFFFF;spacingTop=4;spacingBottom=4;spacingLeft=4;spacingRight=4;points=[];fontStyle=1" vertex="1" parent="MSOV6ydqfFEpPRnxWeuy-2">
          <mxGeometry x="360" y="620" width="30" height="30" as="geometry" />
        </mxCell>
        <mxCell id="MSOV6ydqfFEpPRnxWeuy-30" value="4" style="ellipse;whiteSpace=wrap;html=1;aspect=fixed;rotation=0;gradientColor=#223548;strokeColor=none;gradientDirection=east;fillColor=#5b738b;rounded=0;pointerEvents=0;fontFamily=Helvetica;fontSize=16;fontColor=#FFFFFF;spacingTop=4;spacingBottom=4;spacingLeft=4;spacingRight=4;points=[];fontStyle=1" vertex="1" parent="MSOV6ydqfFEpPRnxWeuy-2">
          <mxGeometry x="960" y="660" width="30" height="30" as="geometry" />
        </mxCell>
        <mxCell id="MSOV6ydqfFEpPRnxWeuy-31" value="5" style="ellipse;whiteSpace=wrap;html=1;aspect=fixed;rotation=0;gradientColor=#223548;strokeColor=none;gradientDirection=east;fillColor=#5b738b;rounded=0;pointerEvents=0;fontFamily=Helvetica;fontSize=16;fontColor=#FFFFFF;spacingTop=4;spacingBottom=4;spacingLeft=4;spacingRight=4;points=[];fontStyle=1" vertex="1" parent="MSOV6ydqfFEpPRnxWeuy-2">
          <mxGeometry x="420" y="430" width="30" height="30" as="geometry" />
        </mxCell>
        <mxCell id="MSOV6ydqfFEpPRnxWeuy-32" value="6" style="ellipse;whiteSpace=wrap;html=1;aspect=fixed;rotation=0;gradientColor=#223548;strokeColor=none;gradientDirection=east;fillColor=#5b738b;rounded=0;pointerEvents=0;fontFamily=Helvetica;fontSize=16;fontColor=#FFFFFF;spacingTop=4;spacingBottom=4;spacingLeft=4;spacingRight=4;points=[];fontStyle=1" vertex="1" parent="MSOV6ydqfFEpPRnxWeuy-2">
          <mxGeometry x="160" y="330" width="30" height="30" as="geometry" />
        </mxCell>
        <mxCell id="MSOV6ydqfFEpPRnxWeuy-33" value="7" style="ellipse;whiteSpace=wrap;html=1;aspect=fixed;rotation=0;gradientColor=#223548;strokeColor=none;gradientDirection=east;fillColor=#5b738b;rounded=0;pointerEvents=0;fontFamily=Helvetica;fontSize=16;fontColor=#FFFFFF;spacingTop=4;spacingBottom=4;spacingLeft=4;spacingRight=4;points=[];fontStyle=1" vertex="1" parent="MSOV6ydqfFEpPRnxWeuy-2">
          <mxGeometry x="400" y="260" width="30" height="30" as="geometry" />
        </mxCell>
        <mxCell id="MSOV6ydqfFEpPRnxWeuy-34" style="edgeStyle=orthogonalEdgeStyle;rounded=0;orthogonalLoop=1;jettySize=auto;html=1;exitX=0.5;exitY=0;exitDx=0;exitDy=0;exitPerimeter=0;" edge="1" parent="MSOV6ydqfFEpPRnxWeuy-2" source="MSOV6ydqfFEpPRnxWeuy-35" target="MSOV6ydqfFEpPRnxWeuy-7">
          <mxGeometry relative="1" as="geometry" />
        </mxCell>
        <mxCell id="MSOV6ydqfFEpPRnxWeuy-35" value="&lt;b&gt;&lt;font style=&quot;font-size: 14px;&quot;&gt;Memory Retrieval&lt;/font&gt;&lt;/b&gt;" style="fillColor=#c0f5a9;dashed=0;outlineConnect=0;strokeWidth=2;html=1;align=center;fontSize=8;verticalLabelPosition=bottom;verticalAlign=top;shape=mxgraph.eip.polling_consumer;" vertex="1" parent="MSOV6ydqfFEpPRnxWeuy-2">
          <mxGeometry x="20" y="700" width="150" height="90" as="geometry" />
        </mxCell>
        <mxCell id="MSOV6ydqfFEpPRnxWeuy-36" style="edgeStyle=orthogonalEdgeStyle;rounded=0;orthogonalLoop=1;jettySize=auto;html=1;exitX=0.5;exitY=0;exitDx=0;exitDy=0;exitPerimeter=0;entryX=0.5;entryY=1;entryDx=0;entryDy=0;entryPerimeter=0;" edge="1" parent="MSOV6ydqfFEpPRnxWeuy-2" source="MSOV6ydqfFEpPRnxWeuy-26" target="MSOV6ydqfFEpPRnxWeuy-35">
          <mxGeometry relative="1" as="geometry" />
        </mxCell>
        <mxCell id="MSOV6ydqfFEpPRnxWeuy-41" value="&lt;b&gt;&lt;font style=&quot;font-size: 14px;&quot;&gt;Embedding&lt;/font&gt;&lt;/b&gt;" style="html=1;strokeWidth=2;outlineConnect=0;dashed=0;align=center;fontSize=8;fillColor=#f5f5f5;verticalLabelPosition=bottom;verticalAlign=top;shape=mxgraph.eip.message_filter;gradientColor=#b3b3b3;strokeColor=#666666;" vertex="1" parent="MSOV6ydqfFEpPRnxWeuy-2">
          <mxGeometry x="25" y="70" width="150" height="90" as="geometry" />
        </mxCell>
        <mxCell id="MSOV6ydqfFEpPRnxWeuy-43" style="edgeStyle=orthogonalEdgeStyle;rounded=0;orthogonalLoop=1;jettySize=auto;html=1;exitX=0;exitY=1;exitDx=50;exitDy=0;exitPerimeter=0;" edge="1" parent="MSOV6ydqfFEpPRnxWeuy-2" source="MSOV6ydqfFEpPRnxWeuy-44" target="MSOV6ydqfFEpPRnxWeuy-46">
          <mxGeometry relative="1" as="geometry" />
        </mxCell>
        <mxCell id="MSOV6ydqfFEpPRnxWeuy-44" value="" style="strokeWidth=1;outlineConnect=0;dashed=0;align=center;html=1;fontSize=8;shape=mxgraph.eip.dataChannel;verticalLabelPosition=bottom;labelBackgroundColor=#ffffff;verticalAlign=top;" vertex="1" parent="MSOV6ydqfFEpPRnxWeuy-2">
          <mxGeometry x="265" y="105" width="100" height="20" as="geometry" />
        </mxCell>
        <mxCell id="MSOV6ydqfFEpPRnxWeuy-45" style="edgeStyle=orthogonalEdgeStyle;rounded=0;orthogonalLoop=1;jettySize=auto;html=1;exitX=1;exitY=0.5;exitDx=0;exitDy=0;exitPerimeter=0;entryX=0;entryY=0.5;entryDx=2.7;entryDy=0;entryPerimeter=0;" edge="1" parent="MSOV6ydqfFEpPRnxWeuy-2" source="MSOV6ydqfFEpPRnxWeuy-41" target="MSOV6ydqfFEpPRnxWeuy-44">
          <mxGeometry relative="1" as="geometry" />
        </mxCell>
        <mxCell id="MSOV6ydqfFEpPRnxWeuy-46" value="&lt;b&gt;&lt;font style=&quot;font-size: 14px;&quot;&gt;Vector Store&lt;/font&gt;&lt;/b&gt;" style="html=1;strokeWidth=2;outlineConnect=0;dashed=0;align=center;fontSize=8;verticalLabelPosition=bottom;verticalAlign=top;shape=mxgraph.eip.message_store;fillColor=#f5f5f5;strokeColor=#666666;gradientColor=#b3b3b3;" vertex="1" parent="MSOV6ydqfFEpPRnxWeuy-2">
          <mxGeometry x="240" y="230" width="150" height="90" as="geometry" />
        </mxCell>
        <mxCell id="MSOV6ydqfFEpPRnxWeuy-47" style="edgeStyle=orthogonalEdgeStyle;rounded=0;orthogonalLoop=1;jettySize=auto;html=1;entryX=0.5;entryY=0;entryDx=0;entryDy=0;entryPerimeter=0;" edge="1" parent="MSOV6ydqfFEpPRnxWeuy-2" source="MSOV6ydqfFEpPRnxWeuy-46" target="MSOV6ydqfFEpPRnxWeuy-10">
          <mxGeometry relative="1" as="geometry" />
        </mxCell>
        <mxCell id="MSOV6ydqfFEpPRnxWeuy-51" style="edgeStyle=orthogonalEdgeStyle;rounded=0;orthogonalLoop=1;jettySize=auto;html=1;exitX=1;exitY=0.5;exitDx=0;exitDy=0;exitPerimeter=0;" edge="1" parent="MSOV6ydqfFEpPRnxWeuy-2" source="MSOV6ydqfFEpPRnxWeuy-48" target="MSOV6ydqfFEpPRnxWeuy-46">
          <mxGeometry relative="1" as="geometry" />
        </mxCell>
        <mxCell id="MSOV6ydqfFEpPRnxWeuy-48" value="&lt;b&gt;&lt;font style=&quot;font-size: 14px;&quot;&gt;Retrieval System&lt;/font&gt;&lt;/b&gt;" style="fillColor=#c0f5a9;dashed=0;outlineConnect=0;strokeWidth=2;html=1;align=center;fontSize=8;verticalLabelPosition=bottom;verticalAlign=top;shape=mxgraph.eip.polling_consumer;" vertex="1" parent="MSOV6ydqfFEpPRnxWeuy-2">
          <mxGeometry x="20" y="230" width="150" height="90" as="geometry" />
        </mxCell>
        <mxCell id="MSOV6ydqfFEpPRnxWeuy-52" value="9" style="ellipse;whiteSpace=wrap;html=1;aspect=fixed;rotation=0;gradientColor=#223548;strokeColor=none;gradientDirection=east;fillColor=#5b738b;rounded=0;pointerEvents=0;fontFamily=Helvetica;fontSize=16;fontColor=#FFFFFF;spacingTop=4;spacingBottom=4;spacingLeft=4;spacingRight=4;points=[];fontStyle=1" vertex="1" parent="MSOV6ydqfFEpPRnxWeuy-2">
          <mxGeometry x="100" y="830" width="30" height="30" as="geometry" />
        </mxCell>
        <mxCell id="MSOV6ydqfFEpPRnxWeuy-38" value="&lt;font style=&quot;font-size: 14px;&quot;&gt;&lt;b&gt;Information Sources&lt;/b&gt;&lt;/font&gt;" style="text;strokeColor=none;align=center;fillColor=none;html=1;verticalAlign=middle;whiteSpace=wrap;rounded=0;" vertex="1" parent="1">
          <mxGeometry x="50" y="-780" width="160" height="30" as="geometry" />
        </mxCell>
        <mxCell id="MSOV6ydqfFEpPRnxWeuy-39" value="3" style="ellipse;whiteSpace=wrap;html=1;aspect=fixed;rotation=0;gradientColor=#223548;strokeColor=none;gradientDirection=east;fillColor=#5b738b;rounded=0;pointerEvents=0;fontFamily=Helvetica;fontSize=16;fontColor=#FFFFFF;spacingTop=4;spacingBottom=4;spacingLeft=4;spacingRight=4;points=[];fontStyle=1" vertex="1" parent="1">
          <mxGeometry x="110" y="-750" width="30" height="30" as="geometry" />
        </mxCell>
        <mxCell id="MSOV6ydqfFEpPRnxWeuy-37" value="8" style="ellipse;whiteSpace=wrap;html=1;aspect=fixed;rotation=0;gradientColor=#223548;strokeColor=none;gradientDirection=east;fillColor=#5b738b;rounded=0;pointerEvents=0;fontFamily=Helvetica;fontSize=16;fontColor=#FFFFFF;spacingTop=4;spacingBottom=4;spacingLeft=4;spacingRight=4;points=[];fontStyle=1" vertex="1" parent="1">
          <mxGeometry x="180" y="-880" width="30" height="30" as="geometry" />
        </mxCell>
        <mxCell id="MSOV6ydqfFEpPRnxWeuy-40" value="&lt;b&gt;&lt;font style=&quot;font-size: 14px;&quot;&gt;Data Sources&lt;/font&gt;&lt;/b&gt;" style="html=1;strokeWidth=2;outlineConnect=0;dashed=0;align=center;fontSize=8;fillColor=#f5f5f5;verticalLabelPosition=bottom;verticalAlign=top;shape=mxgraph.eip.aggregator;strokeColor=#666666;gradientColor=#b3b3b3;" vertex="1" parent="1">
          <mxGeometry x="50" y="-980" width="150" height="90" as="geometry" />
        </mxCell>
        <mxCell id="MSOV6ydqfFEpPRnxWeuy-42" style="edgeStyle=orthogonalEdgeStyle;rounded=0;orthogonalLoop=1;jettySize=auto;html=1;exitX=1;exitY=0.5;exitDx=0;exitDy=0;exitPerimeter=0;entryX=0;entryY=0.5;entryDx=0;entryDy=0;entryPerimeter=0;" edge="1" parent="1" source="MSOV6ydqfFEpPRnxWeuy-40" target="MSOV6ydqfFEpPRnxWeuy-41">
          <mxGeometry relative="1" as="geometry" />
        </mxCell>
      </root>
    </mxGraphModel>
  </diagram>
</mxfile>
